<svg xmlns="http://www.w3.org/2000/svg" width="64" height="64" id="campaign"><g transform="translate(-2.214 -986.355)"><g fill="#e9eded" fill-rule="evenodd" color="#000" font-family="sans-serif" font-weight="400"><path style="line-height:normal;text-indent:0;text-align:start;text-decoration-line:none;text-decoration-style:solid;text-decoration-color:#000;text-transform:none;block-progression:tb;isolation:auto;mix-blend-mode:normal" d="M82.515 1219.361c-.676-.01-.676 1.01 0 1h2.992c.676.01.676-1.01 0-1zm-1-2c-.677-.01-.677 1.01 0 1h6.992c.676.01.676-1.01 0-1z" overflow="visible" transform="translate(-55.014 -217)"></path><path style="line-height:normal;text-indent:0;text-align:start;text-decoration-line:none;text-decoration-style:solid;text-decoration-color:#000;text-transform:none;block-progression:tb;isolation:auto;mix-blend-mode:normal" d="M83.542 1218.362a.5.5 0 0 1-.014 1h1.994a.5.5 0 0 1-.035-1h-1.945zm-4.02-3c-.677-.01-.677 1.01 0 1h1c.676.01.676-1.01 0-1zm3 0a.5.5 0 1 0 0 1h5a.5.5 0 1 0 0-1h-5z" overflow="visible" transform="translate(-55.014 -217)"></path><path style="line-height:normal;text-indent:0;text-align:start;text-decoration-line:none;text-decoration-style:solid;text-decoration-color:#000;text-transform:none;block-progression:tb;isolation:auto;mix-blend-mode:normal" d="M84.506 1215.361a.5.5 0 1 0 0 1h5a.5.5 0 1 0 0-1h-5zM83.028 1216.362a.5.5 0 0 1-.014 1h1.994a.5.5 0 0 1-.035-1h-1.945zm3.006 0a.5.5 0 0 1-.014 1h1.994a.5.5 0 0 1-.035-1h-1.945zm1.473 3c-.676-.01-.676 1.01 0 1 .676.01.676-1.01 0-1z" overflow="visible" transform="translate(-55.014 -217)"></path></g><g transform="translate(.572 -.43)"><g fill-rule="evenodd"><path fill="#ffeb3b" d="M7.859 1044.228s3.031-13.348 8.048-13.82c3.548-.126 6.298 3.02 5.932 5.932-.499 5.022-13.98 7.888-13.98 7.888z"></path><path fill="#ff9800" d="M14.156 1037.984s.315-6.778 3.459-7.075c2.222-.078 3.945 1.893 3.716 3.717-.312 3.147-7.175 3.358-7.175 3.358z"></path></g><path fill="#e9eded" fill-rule="evenodd" d="M55 997.362c-21.213 0-32.527 16.97-36.062 27.577 3.535.707 7.778 4.95 8.485 8.486C38.029 1029.889 55 1018.575 55 997.362"></path><g fill-rule="evenodd"><path fill="#ffeb3b" d="M7.859 1044.228s3.031-13.348 8.048-13.82c3.548-.126 6.298 3.02 5.932 5.932-.499 5.022-13.98 7.888-13.98 7.888z"></path><path fill="#ff9800" d="M14.156 1037.984s.315-6.778 3.459-7.075c2.222-.078 3.945 1.893 3.716 3.717-.312 3.147-7.175 3.358-7.175 3.358z"></path></g><path fill="#f44336" fill-rule="evenodd" d="M23.75 1015.113c-1.817 2.938-3.88 6.718-4.788 9.826-.726-.288-.7-.714-2.117-.72-1.415-.01-3.607 2.04-5.41 3.06 1.176-4.5 4.056-12.968 6.179-13.22 1.417-.433 4.948.295 6.137 1.054zm13.501 13.52c-2.885 1.74-6.724 3.869-9.834 4.772.287.726.707.707.717 2.118.006 1.414-2.047 3.604-3.07 5.405 4.503-1.169 12.975-4.035 13.231-6.157.436-1.416-.287-4.949-1.044-6.139z"></path><path fill="#263238" fill-rule="evenodd" d="M18.664 1026.168c1.905.446 3.352 1.589 4.623 2.85 1.273 1.259 2.368 2.639 2.722 4.406l-1.591.84-6.483-6.395z"></path><path fill="#f44336" fill-rule="evenodd" d="M55 997.363c-4.466 0-8.487.76-12.095 2.045l10.05 10.049c1.285-3.608 2.044-7.629 2.044-12.094z"></path><circle cx="987.028" cy="221.514" r="3.428" fill="#81d4fa" transform="rotate(75)"></circle><path fill="#263238" d="M42.905 999.408c-.692.247-1.375.507-2.037.792l11.295 11.294a34.32 34.32 0 0 0 .791-2.037l-10.049-10.049z"></path><path fill="#bbdefb" d="M43.254 1007.784a3.428 3.428 0 0 0-.95-.388 3.428 3.428 0 0 1 .837 1.482 3.428 3.428 0 0 1-2.424 4.199 3.428 3.428 0 0 1-1.694.02 3.428 3.428 0 0 0 3.36.942 3.428 3.428 0 0 0 2.424-4.198 3.428 3.428 0 0 0-1.553-2.056z"></path><path style="line-height:normal;text-indent:0;text-align:start;text-decoration-line:none;text-decoration-style:solid;text-decoration-color:#000;text-transform:none;block-progression:tb;isolation:auto;mix-blend-mode:normal" fill="#607d8b" d="M44.325 1007.899a4.008 4.008 0 0 0-5.656 0 4.008 4.008 0 0 0 0 5.656 4.008 4.008 0 0 0 5.656 0 4.008 4.008 0 0 0 0-5.656zm-.808.808a2.848 2.848 0 0 1 0 4.04 2.848 2.848 0 0 1-4.04 0 2.848 2.848 0 0 1 0-4.04 2.848 2.848 0 0 1 4.04 0z" color="#000" font-family="sans-serif" font-weight="400" overflow="visible"></path><path fill="#b0bec5" fill-rule="evenodd" d="M55 997.363c-.397 0-.783.017-1.173.029-.602 20.013-16.418 30.923-26.85 34.634.2.473.354.942.445 1.4C38.03 1029.89 55 1018.575 55 997.362zm-31.903 29.616c-1.18-1.18-2.553-2.161-3.904-2.736-.082.23-.181.473-.256.697 1.555.311 3.233 1.325 4.7 2.642-.18-.201-.348-.412-.54-.603z"></path><path fill="#d22e2e" fill-rule="evenodd" d="M55 997.363c-.397 0-.783.017-1.173.029-.12 3.997-.856 7.626-2.026 10.912l1.153 1.153c.458-1.283.845-2.62 1.159-4.01.02-.093.044-.185.065-.28.071-.329.133-.665.196-1a35.468 35.468 0 0 0 .258-1.573c.04-.288.077-.58.11-.872.032-.272.062-.544.088-.82.031-.34.057-.684.08-1.03.015-.233.033-.465.044-.701a38.86 38.86 0 0 0 .045-1.808z"></path><path fill="#455a64" fill-rule="evenodd" d="M51.8 1008.304a34.22 34.22 0 0 1-.795 2.033l1.158 1.157c.002 0 .002-.01.004-.013.283-.658.542-1.336.787-2.024l-1.153-1.154zm-28.513 20.713c-.142-.141-.297-.271-.444-.409 1.027 1.108 1.877 2.323 2.178 3.827l-1.593.841-5.488-5.416-.004.01 6.481 6.395 1.592-.84c-.353-1.768-1.448-3.149-2.722-4.408z"></path><path fill="#f44336" fill-rule="evenodd" d="M28.817 1025.689c.847-1.106 1.697-3.819 1.697-3.819s-2.712.852-3.818 1.698c-3.86 2.951-9.204 11.302-9.204 11.302s8.37-5.324 11.325-9.181z"></path><path fill="#ffc107" fill-rule="evenodd" d="M20.34 1032.23a6.025 6.025 0 0 0-.479-.444c.936 1.1 1.44 2.495 1.27 3.842-.442 4.454-10.62 7.083-13.024 7.65-.076.303-.25.946-.25.946s13.483-2.866 13.982-7.889c.182-1.455-.414-2.97-1.499-4.106z"></path><path fill="#f57c00" fill-rule="evenodd" d="M20.393 1032.05c-.14-.146-.301-.272-.464-.395.512.666.792 1.472.693 2.26-.256 2.578-4.724 3.163-6.396 3.299-.035.362-.07.766-.07.766s6.862-.21 7.174-3.357c.115-.912-.257-1.862-.937-2.573z"></path><path fill="#d22e2e" fill-rule="evenodd" d="M30.515 1021.87s-.581.203-1.097.39c-.322.892-.771 2.021-1.308 2.722-2.022 2.638-6.45 5.857-9.126 7.695-.852 1.234-1.492 2.193-1.492 2.193s8.37-5.324 11.325-9.181c.847-1.106 1.698-3.819 1.698-3.819zm6.736 6.762c-.094.057-.206.12-.302.178.576 1.551.995 4.1.64 5.255-.232 1.919-7.152 4.432-11.81 5.763-.256.374-.514.748-.714 1.1 4.502-1.168 12.975-4.033 13.23-6.156.436-1.416-.287-4.95-1.044-6.14z"></path></g><g fill="#e9eded" fill-rule="evenodd" color="#000" font-family="sans-serif" font-weight="400"><path style="line-height:normal;text-indent:0;text-align:start;text-decoration-line:none;text-decoration-style:solid;text-decoration-color:#000;text-transform:none;block-progression:tb;isolation:auto;mix-blend-mode:normal" d="M82.515 1219.361c-.676-.01-.676 1.01 0 1h2.992c.676.01.676-1.01 0-1zm-1-2c-.677-.01-.677 1.01 0 1h6.992c.676.01.676-1.01 0-1z" overflow="visible" transform="translate(-35.014 -188)"></path><path style="line-height:normal;text-indent:0;text-align:start;text-decoration-line:none;text-decoration-style:solid;text-decoration-color:#000;text-transform:none;block-progression:tb;isolation:auto;mix-blend-mode:normal" d="M83.542 1218.362a.5.5 0 0 1-.014 1h1.994a.5.5 0 0 1-.035-1h-1.945zm-4.02-3c-.677-.01-.677 1.01 0 1h1c.676.01.676-1.01 0-1zm3 0a.5.5 0 1 0 0 1h5a.5.5 0 1 0 0-1h-5z" overflow="visible" transform="translate(-35.014 -188)"></path><path style="line-height:normal;text-indent:0;text-align:start;text-decoration-line:none;text-decoration-style:solid;text-decoration-color:#000;text-transform:none;block-progression:tb;isolation:auto;mix-blend-mode:normal" d="M84.506 1215.361a.5.5 0 1 0 0 1h5a.5.5 0 1 0 0-1h-5zM83.028 1216.362a.5.5 0 0 1-.014 1h1.994a.5.5 0 0 1-.035-1h-1.945zm3.006 0a.5.5 0 0 1-.014 1h1.994a.5.5 0 0 1-.035-1h-1.945zm1.473 3c-.676-.01-.676 1.01 0 1 .676.01.676-1.01 0-1z" overflow="visible" transform="translate(-35.014 -188)"></path></g><path fill="none" stroke="#f44336" stroke-linecap="round" stroke-linejoin="round" d="M34.493 993.862h2m-1-1v2"></path><path fill="none" stroke="#546e7a" stroke-linecap="round" stroke-linejoin="round" d="m20.08 998.281 1.415-1.414m-1.414 0 1.414 1.414"></path><circle cx="729.288" cy="696.049" r="1" fill="none" stroke="#ffc107" stroke-linecap="round" style="isolation:auto;mix-blend-mode:normal" stroke-linejoin="round" color="#000" overflow="visible" transform="rotate(45)"></circle><path fill="none" stroke="#f44336" stroke-linecap="round" stroke-linejoin="round" d="m48.238 1037.484-1.732 1m1.366.366-1-1.732"></path><path fill="none" stroke="#546e7a" stroke-linecap="round" stroke-linejoin="round" d="m59.495 1027.443-1.414 1.414m1.414 0-1.414-1.414"></path><circle cx="-312.998" cy="-973.007" r="1" fill="none" stroke="#ffc107" stroke-linecap="round" style="isolation:auto;mix-blend-mode:normal" stroke-linejoin="round" color="#000" overflow="visible" transform="rotate(-165)"></circle></g></svg>